<svg width="120" height="46" viewBox="0 0 120 46" fill="none" xmlns="http://www.w3.org/2000/svg">
<path d="M6.8185 16.7031C9.37375 14.1703 14.101 14.7964 17.3775 18.1017C17.4679 18.1929 17.556 18.29 17.6424 18.3909V1H5.36737C2.40312 1 0 3.40313 0 6.3675V25.6276H6.78375C4.74225 22.5384 4.66412 18.8388 6.8185 16.7031Z" fill="white"/>
<path d="M11.8396 40.9454L6.27075 35.0374L8.89188 32.6638H0V39.2939C0 42.2584 2.40312 44.6613 5.36737 44.6613H17.6423V35.4758L11.8396 40.9454Z" fill="white"/>
<path d="M25.3044 18.102C28.5809 14.7966 33.3081 14.1705 35.8634 16.7034C38.0177 18.839 37.9397 22.5386 35.8982 25.6279H64.0001V6.36762C64.0001 3.40324 61.5968 1.00024 58.6326 1.00024H25.0396V18.3911C25.1259 18.2902 25.2141 18.1931 25.3044 18.102Z" fill="white"/>
<path d="M36.4111 35.3768L30.5031 40.9456L25.0396 35.1494V44.6616H58.6326C61.5969 44.6616 64.0001 42.2586 64.0001 39.2942V32.6641H33.7633L36.4111 35.3768Z" fill="white"/>
<path d="M26.9268 20.9844C25.2504 22.6754 24.9241 27.739 24.9241 27.739C24.9241 27.739 29.9844 27.368 31.6609 25.677C33.3374 23.986 33.6364 21.5645 32.3291 20.2687C31.0217 18.9729 28.6029 19.2932 26.9268 20.9844Z" fill="white"/>
<path d="M10.3527 20.2687C9.04533 21.5644 9.34445 23.9859 11.0207 25.677C12.6972 27.368 17.7576 27.739 17.7576 27.739C17.7576 27.739 17.4313 22.6754 15.755 20.9844C14.0787 19.2932 11.66 18.9729 10.3527 20.2687Z" fill="white"/>
<path d="M75.34 14.2C73.18 14.2 71.54 13.6333 70.42 12.5C69.3 11.3667 68.74 9.79333 68.74 7.78C68.74 5.64667 69.3067 3.97333 70.44 2.76C71.5733 1.53333 73.26 0.919999 75.5 0.919999C76.2733 0.919999 76.9733 0.966666 77.6 1.06C78.2267 1.14 78.82 1.27333 79.38 1.46V3.78C78.82 3.58 78.2267 3.44 77.6 3.36C76.9867 3.26667 76.3533 3.22 75.7 3.22C74.1667 3.22 73.08 3.6 72.44 4.36C71.8 5.10667 71.48 6.24667 71.48 7.78C71.48 10.54 72.78 11.92 75.38 11.92C75.8333 11.92 76.2733 11.8867 76.7 11.82C77.14 11.74 77.5267 11.64 77.86 11.52V8.52H74.86V6.8H80.14V13.1C79.7 13.38 79.0867 13.6333 78.3 13.86C77.5133 14.0867 76.5267 14.2 75.34 14.2ZM82.0111 14V1.12H84.7111V14H82.0111ZM86.9916 14V1.12H96.0516V3.22H89.6916V6.52H95.3116V8.6H89.6916V14H86.9916ZM100.698 14V3.2H96.7384V1.12H107.338V3.2H103.398V14H100.698Z" fill="white"/>
<path d="M75.42 29.2C73.26 29.2 71.6067 28.62 70.46 27.46C69.3133 26.2867 68.74 24.6933 68.74 22.68C68.74 20.5467 69.2933 18.8867 70.4 17.7C71.52 16.5133 73.1867 15.92 75.4 15.92C76.1733 15.92 76.8667 15.98 77.48 16.1C78.1067 16.2067 78.6933 16.36 79.24 16.56V18.92C78.1067 18.4533 76.8933 18.22 75.6 18.22C74.1333 18.22 73.08 18.5867 72.44 19.32C71.8 20.0533 71.48 21.1733 71.48 22.68C71.48 25.5067 72.8667 26.92 75.64 26.92C76.2667 26.92 76.8867 26.8667 77.5 26.76C78.1133 26.64 78.7 26.4667 79.26 26.24V28.62C78.7133 28.7933 78.1267 28.9333 77.5 29.04C76.8867 29.1467 76.1933 29.2 75.42 29.2ZM80.1267 29L85.0467 16.12H88.0067L92.9067 29H90.1067L88.8867 25.9H84.1467L82.9467 29H80.1267ZM84.5467 23.82H88.4867L86.5067 18.64L84.5467 23.82ZM94.7845 29V16.12H100.965C102.445 16.12 103.531 16.5133 104.225 17.3C104.918 18.0733 105.265 19.12 105.265 20.44C105.265 21.3067 105.038 22.0533 104.585 22.68C104.145 23.3067 103.518 23.76 102.705 24.04C102.918 24.2133 103.085 24.4 103.205 24.6C103.338 24.8 103.471 25.0667 103.605 25.4L105.165 29H102.365L100.845 25.54C100.711 25.2467 100.565 25.04 100.405 24.92C100.245 24.8 99.9779 24.74 99.6045 24.74H97.4845V29H94.7845ZM97.4845 22.5H100.265C100.971 22.5 101.525 22.3467 101.925 22.04C102.325 21.72 102.525 21.1867 102.525 20.44C102.525 19.72 102.351 19.1933 102.005 18.86C101.658 18.5267 101.131 18.36 100.425 18.36H97.4845V22.5ZM107.148 29V16.12H112.548C114.481 16.12 115.934 16.62 116.908 17.62C117.894 18.6067 118.388 20.2733 118.388 22.62C118.388 24.8333 117.901 26.4533 116.928 27.48C115.968 28.4933 114.508 29 112.548 29H107.148ZM109.848 26.92H112.168C112.928 26.92 113.568 26.8067 114.088 26.58C114.608 26.34 114.994 25.9133 115.248 25.3C115.514 24.6733 115.648 23.78 115.648 22.62C115.648 21.46 115.528 20.5733 115.288 19.96C115.048 19.3467 114.674 18.9267 114.168 18.7C113.661 18.4733 112.994 18.36 112.168 18.36H109.848V26.92Z" fill="white"/>
<path d="M69.14 45V32.12H71.84V37.52H77.46V32.12H80.16V45H77.46V39.6H71.84V45H69.14ZM88.1008 45.2C86.3274 45.2 84.9208 44.7733 83.8808 43.92C82.8541 43.0533 82.3408 41.8 82.3408 40.16V32.12H85.0408V39.96C85.0408 40.9467 85.3074 41.6867 85.8408 42.18C86.3741 42.66 87.1274 42.9 88.1008 42.9C89.0741 42.9 89.8208 42.66 90.3408 42.18C90.8741 41.6867 91.1408 40.9467 91.1408 39.96V32.12H93.8408V40.16C93.8408 41.8 93.3274 43.0533 92.3008 43.92C91.2741 44.7733 89.8741 45.2 88.1008 45.2ZM96.015 45V32.12H102.535C103.828 32.12 104.788 32.4267 105.415 33.04C106.055 33.64 106.375 34.4933 106.375 35.6C106.375 36.2933 106.242 36.8733 105.975 37.34C105.708 37.7933 105.348 38.1467 104.895 38.4C105.495 38.5867 105.968 38.9 106.315 39.34C106.675 39.7667 106.855 40.4 106.855 41.24C106.855 42.48 106.502 43.42 105.795 44.06C105.102 44.6867 104.095 45 102.775 45H96.015ZM98.715 37.46H102.035C102.688 37.46 103.155 37.32 103.435 37.04C103.715 36.7467 103.855 36.34 103.855 35.82C103.855 35.2467 103.708 34.82 103.415 34.54C103.135 34.26 102.608 34.12 101.835 34.12H98.715V37.46ZM98.715 43.02H102.135C102.815 43.02 103.315 42.88 103.635 42.6C103.955 42.32 104.115 41.8267 104.115 41.12C104.115 40.5467 103.955 40.12 103.635 39.84C103.328 39.56 102.768 39.42 101.955 39.42H98.715V43.02Z" fill="white"/>
</svg>
